# xmcd
#
# Track frame offsets:
#	150
#	16607
#	33502
#	51432
#	86330
#	96797
#
# Disc length: 1643 seconds
#
# Revision: 0
# Processed by: cddbd v1.4PL0 Copyright (c) Steve Scherf et al.
# Submitted via: dBpowerAMP V4.0
#
DISCID=3c066906
DTITLE=Backsliders - From Raleigh, NC
DYEAR=1900
DGENRE=Country
TTITLE0=The Pain Of Love
TTITLE1=Number 5
TTITLE2=Lexington Avenue
TTITLE3=Hey Sheriff
TTITLE4=High Fashon Queen
TTITLE5=Yep!
EXTD=
EXTT0=
EXTT1=
EXTT2=
EXTT3=
EXTT4=
EXTT5=
PLAYORDER=
